<svg xmlns="http://www.w3.org/2000/svg" viewBox="0 0 512 512">
  <defs>
    <linearGradient id="bg" x1="0%" y1="100%" x2="100%" y2="0%">
      <stop offset="0%" stop-color="#ad7020"/>
      <stop offset="100%" stop-color="#ffdc78"/>
    </linearGradient>
  </defs>
  <rect width="512" height="512" fill="url(#bg)"/>
  <path fill="#5f1730" d="M 283.92 122.36 L 283.92 220.08 C 328.16 232.33 350.27 258.96 350.27 299.98 C 350.27 341.42 328.16 367.66 283.92 378.72 L 283.92 421.76 L 271.12 421.76 L 271.12 381.24 C 265.19 381.94 260.11 382.29 255.87 382.29 C 252.63 382.29 249.17 382.08 245.5 381.66 L 245.5 421.76 L 232.69 421.76 L 232.69 381.24 C 209.18 377.32 191.47 369.1 179.57 356.57 C 167.68 344.04 161.73 330.64 161.73 316.36 C 161.73 307.13 164.39 299.88 169.71 294.63 C 175.02 289.38 182.09 286.76 190.91 286.76 C 198.75 286.76 205.22 289.38 210.33 294.63 C 215.44 299.88 218 306.15 218 313.42 C 218 320.14 215.9 325.92 211.7 330.75 C 207.5 335.58 202.77 338.69 197.52 340.09 C 192.28 341.49 189.65 343.31 189.65 345.55 C 189.65 348.91 193.29 352.9 200.57 357.52 C 207.85 362.14 218.56 365.63 232.69 368.01 L 232.69 267.66 C 189.46 253.72 167.84 228.08 167.82 190.74 C 167.82 151.44 189.44 125.22 232.69 112.07 L 232.69 90.24 L 245.5 90.24 L 245.5 109.97 C 254.67 108.85 263.21 108.57 271.12 109.13 L 271.12 90.24 L 283.92 90.24 L 283.92 109.97 C 305.69 113.33 321.98 120.58 332.79 131.7 C 343.61 142.83 349.01 154.2 349.01 165.82 C 349.01 173.94 346.77 180.76 342.29 186.29 C 337.81 191.82 331.44 194.59 323.19 194.59 C 315.91 194.59 310.13 192.35 305.86 187.87 C 301.6 183.39 299.46 177.79 299.46 171.07 C 299.46 159.03 305.48 151.4 317.52 148.19 C 321.86 147.35 324.03 145.81 324.03 143.57 C 324.03 140.49 320.4 136.74 313.16 132.33 C 305.91 127.92 296.16 124.6 283.92 122.36 Z M 271.12 216.53 L 271.12 121.52 C 260.67 121.52 252.13 122.08 245.5 123.2 L 245.5 209.43 C 255.03 212.8 263.57 215.17 271.12 216.53 Z M 232.69 205.89 L 232.69 125.51 C 207.5 134.05 194.9 148.19 194.9 167.92 C 194.92 186.26 207.52 198.91 232.69 205.89 Z M 271.12 368.01 L 271.12 278.84 L 245.5 271.53 L 245.5 369.27 C 251.15 369.69 259.68 369.27 271.12 368.01 Z M 283.92 282.72 L 283.92 366.33 C 298.13 362.42 308.65 356.33 315.47 348.07 C 322.29 339.81 325.71 330.99 325.71 321.61 C 325.69 301.74 311.76 288.77 283.92 282.72 Z"/>
</svg>
