<svg xmlns="http://www.w3.org/2000/svg" viewBox="0 0 512 512">
  <defs>
    <linearGradient id="bg" x1="0%" y1="0%" x2="100%" y2="100%">
      <stop offset="0%" stop-color="#fff8f1"/>
      <stop offset="100%" stop-color="#ffd9c2"/>
    </linearGradient>
    <linearGradient id="accent" x1="0%" y1="0%" x2="100%" y2="100%">
      <stop offset="0%" stop-color="#6cc6d9"/>
      <stop offset="100%" stop-color="#7f9dff"/>
    </linearGradient>
  </defs>
  <rect width="512" height="512" rx="136" fill="url(#bg)"/>
  <rect x="88" y="88" width="336" height="336" rx="88" fill="#ffffff" opacity="0.95"/>
  <rect x="132" y="150" width="248" height="184" rx="34" fill="url(#accent)"/>
  <circle cx="350" cy="170" r="48" fill="#ffb36f"/>
  <path d="M332 170h36c0 14-10 24-24 24-10 0-18-5-24-13l13-8c2 4 6 7 11 7 6 0 10-4 10-10h-22v-12h22c0-6-4-10-10-10-5 0-9 2-11 6l-13-7c6-9 14-13 24-13 14 0 24 10 24 24h-36v12Z" fill="#7a3f00"/>
  <rect x="156" y="190" width="150" height="20" rx="10" fill="#fff8f1"/>
  <rect x="156" y="232" width="194" height="20" rx="10" fill="#fff8f1" opacity="0.9"/>
  <rect x="156" y="274" width="120" height="20" rx="10" fill="#fff8f1" opacity="0.9"/>
  <path d="M205 352c13-16 38-16 50 0 12-16 37-16 50 0 17 21 11 52-50 89-61-37-67-68-50-89Z" fill="#f07f8f"/>
</svg>
